<svg width="2406" height="1604" viewBox="0 0 2406 1604" fill="none" xmlns="http://www.w3.org/2000/svg">
<path d="M1200.03 347.899C1195.48 350.562 1194.07 350.875 1190.16 349.152C1182.8 346.176 1181.86 348.525 1182.01 368.575C1182.17 387.842 1184.52 401.627 1189.22 411.182L1192.35 417.447L1187.34 412.748C1184.52 410.085 1180.13 403.506 1177.63 397.867C1171.67 384.866 1167.76 380.637 1161.65 380.637C1158.52 380.637 1155.23 379.07 1151.62 375.468L1146.45 370.455L1143.17 374.371C1140.66 377.504 1140.19 379.697 1140.82 385.649C1141.29 389.722 1142.85 395.048 1144.1 397.711C1146.45 402.253 1146.45 402.253 1141.91 403.976C1139.25 404.759 1137.21 406.482 1137.21 407.579C1137.21 408.675 1140.35 413.218 1144.26 417.604C1154.44 429.352 1163.37 432.798 1183.74 432.955C1197.21 433.111 1199.71 433.425 1199.09 435.461C1193.76 453.788 1192.98 471.018 1196.58 497.961C1200.5 526.469 1200.65 544.17 1197.52 569.389C1196.27 579.727 1195.17 588.499 1195.01 588.969C1194.86 589.439 1194.23 586.619 1193.6 582.703C1192.98 578.787 1192.82 565.786 1193.29 553.568C1193.76 539.314 1193.29 526.939 1192.04 518.637C1190.16 506.106 1179.19 466.006 1177.16 463.97C1174.65 461.307 1173.08 468.669 1173.87 480.887C1174.34 489.972 1176.06 498.9 1179.51 509.082C1183.58 521.457 1184.52 527.096 1185.14 542.76C1185.77 561.243 1185.77 561.4 1183.58 553.725C1179.35 539.314 1176.22 531.795 1170.26 521.613C1166.97 515.974 1163.69 509.865 1163.22 507.829C1161.81 503.286 1159.14 503.443 1159.14 507.986C1159.14 510.022 1160.87 520.36 1162.9 530.855C1166.35 547.616 1167.91 552.158 1175.59 565.943C1186.55 585.836 1190.31 596.801 1191.25 611.368C1193.13 641.757 1193.45 651.625 1192.35 651.625C1189.84 651.625 1180.92 630.009 1174.65 608.705C1165.56 577.221 1160.87 568.919 1137.68 542.446C1132.2 536.181 1127.81 530.072 1127.81 528.975C1127.81 527.879 1130.63 523.336 1133.92 518.794C1142.54 507.359 1144.89 499.057 1145.36 476.971C1145.83 459.74 1145.67 458.174 1142.85 457.704C1141.29 457.391 1139.25 458.017 1138.47 459.27C1137.21 460.993 1136.9 460.993 1136.12 459.114C1134.55 455.198 1124.99 445.643 1123.74 446.739C1122.8 447.836 1122.65 456.607 1123.59 495.768C1123.74 502.66 1123.12 509.552 1122.18 511.275C1120.77 513.625 1119.83 510.492 1117.63 495.768C1115.28 479.79 1115.13 475.874 1116.85 466.789C1119.2 454.571 1118.26 449.245 1112.93 443.92C1107.29 438.28 1102.75 439.534 1098.21 447.679C1096.8 450.029 1096.49 450.029 1093.82 447.522C1089.75 443.92 1083.49 444.076 1080.04 447.992C1077.38 450.968 1077.38 451.908 1079.26 457.077C1080.35 460.21 1081.61 463.97 1082.08 465.223C1082.7 467.102 1082.23 466.946 1079.88 464.909C1075.03 460.68 1065 457.077 1060.93 458.174C1055.45 459.427 1052.16 468.199 1053.41 478.38C1054.35 485.116 1053.88 486.996 1051.22 490.598C1047.14 495.611 1046.99 501.407 1050.75 505.949C1053.1 508.925 1056.39 509.865 1068.76 511.432C1080.04 512.841 1086.77 514.721 1094.14 518.324C1109.96 526.156 1106.98 529.445 1090.53 522.553C1082.86 519.264 1078.94 518.637 1065.16 518.794C1045.26 518.794 1041.66 519.89 1041.66 526.156C1041.66 529.759 1040.88 530.855 1037.28 531.482C1034.46 532.108 1032.11 533.988 1030.85 536.651C1028.5 541.82 1030.38 544.17 1035.4 542.29C1037.59 541.507 1043.7 541.663 1050.59 542.76C1063.59 544.796 1073.15 543.856 1088.97 538.844C1094.29 537.121 1101.81 535.711 1105.41 535.711C1109.02 535.711 1112.46 534.928 1112.93 534.145C1114.66 531.325 1118.1 532.421 1124.05 537.591C1130.95 543.7 1144.26 559.99 1151.94 572.052C1156.48 579.1 1163.84 595.391 1163.84 598.211C1163.84 598.524 1161.34 596.331 1158.2 593.198C1151 585.993 1134.24 575.028 1104.94 558.111C1096.96 553.568 1082.86 550.592 1075.5 552.002C1070.01 553.098 1067.98 555.604 1071.89 556.701C1083.8 559.99 1091.79 562.653 1092.41 563.593C1092.88 564.376 1089.12 564.533 1084.27 564.22C1069.07 563.28 1054.04 567.509 1028.19 580.197C1015.19 586.619 1001.72 592.571 998.273 593.511C994.67 594.451 991.067 596.174 990.127 597.427C988.717 599.15 990.127 599.777 998.586 600.717C1012.68 602.127 1022.55 598.994 1040.72 586.776C1054.04 577.847 1070.48 570.172 1072.21 572.052C1073.15 572.991 1055.76 585.523 1044.32 592.258C1034.3 598.211 1033.67 600.873 1042.29 600.404C1049.81 599.934 1061.4 593.668 1070.01 585.209C1082.39 573.305 1092.41 569.389 1105.73 571.268L1112.62 572.208L1104.32 574.401C1091.79 577.534 1072.52 588.969 1075.18 591.632C1077.06 593.668 1097.11 589.125 1111.68 583.486L1126.09 577.847L1132.83 581.293C1143.64 586.619 1155.23 596.018 1161.34 604.32C1166.19 610.898 1186.71 654.758 1184.83 654.758C1184.52 654.758 1178.25 650.842 1171.05 646.143C1150.37 632.671 1127.19 624.213 1100.72 620.454C1070.8 616.224 1042.13 630.165 1036.96 651.312C1033.83 665.253 1042.13 690.159 1053.41 700.027C1076.28 720.077 1106.67 718.354 1145.83 694.701C1165.56 682.796 1185.93 673.398 1185.77 676.374C1185.61 677.001 1182.01 679.194 1177.47 681.387C1172.77 683.58 1165.72 689.062 1160.71 694.545C1128.13 729.319 1125.15 731.042 1087.09 734.645C1037.12 739.5 1006.73 753.285 986.211 780.54C983.705 783.83 982.139 786.806 982.608 787.276C983.078 787.902 987.934 785.396 993.417 782.107C1022.4 763.78 1050.12 753.911 1085.05 749.369C1123.59 744.513 1140.97 736.211 1158.52 714.281C1165.56 705.353 1190.16 683.58 1191.41 684.989C1192.19 685.773 1180.45 711.618 1172.14 727.596C1169.17 733.548 1163.06 745.296 1158.83 753.441C1148.65 773.335 1141.6 796.048 1141.29 810.459C1141.13 821.267 1141.29 821.58 1145.04 821.58C1149.43 821.58 1149.27 822.363 1157.26 788.686C1161.65 770.985 1164.15 764.406 1177.16 738.561C1193.45 705.979 1192.98 705.979 1188.12 738.561C1184.2 764.876 1185.93 812.182 1191.1 820.484C1191.72 821.58 1194.07 822.363 1196.27 822.363C1200.03 822.363 1200.18 822.05 1199.24 815.628C1196.89 798.554 1196.58 742.633 1198.77 723.68C1199.87 712.871 1201.28 705.196 1201.75 706.449C1202.22 707.702 1205.35 721.173 1208.64 736.211C1213.18 757.044 1214.75 768.166 1215.22 782.733C1215.85 799.807 1216.16 802 1218.51 802C1229.94 802 1226.34 760.177 1210.68 709.582C1204.88 690.942 1204.88 686.399 1210.68 701.75C1213.18 708.172 1221.17 724.306 1228.53 737.621C1244.98 767.069 1250.78 780.697 1254.85 799.337C1258.92 818.291 1260.18 821.11 1264.56 820.484C1276.15 818.917 1264.09 781.01 1237.93 736.994C1229 721.643 1214.59 691.255 1215.85 689.845C1217.57 688.122 1239.66 705.979 1247.8 715.848C1263.15 734.488 1279.91 743.416 1306.38 747.176C1338.5 751.875 1348.52 753.911 1363.4 758.767C1380.63 764.563 1396.77 772.082 1412.27 781.793C1417.6 785.239 1422.77 787.902 1423.71 787.902C1424.8 787.902 1423.55 784.926 1421.05 781.167C1404.91 757.984 1369.82 740.597 1329.72 736.211C1298.24 732.765 1284.3 730.102 1276.31 725.716C1271.92 723.366 1262.06 714.751 1253.44 705.666C1239.81 691.412 1223.21 678.254 1218.67 678.254C1217.88 678.254 1217.1 677.471 1217.1 676.531C1217.1 673.085 1237.31 682.17 1266.44 698.461C1289.47 711.305 1301.37 714.908 1317.66 713.811C1347.27 711.775 1365.91 691.882 1365.91 662.12C1365.91 640.973 1349.3 624.526 1323.77 620.454C1300.75 616.694 1260.96 627.972 1228.38 647.396C1221.33 651.625 1215.06 654.758 1214.59 654.445C1213.03 652.721 1230.1 629.539 1238.25 622.333C1256.1 606.356 1284.3 592.885 1307.17 589.125C1315.78 587.716 1317.04 588.029 1323.3 591.632C1327.06 593.668 1333.95 596.801 1338.81 598.524C1343.67 600.09 1350.71 603.223 1354.32 605.416C1361.99 609.959 1362.78 610.115 1362.78 607.139C1362.78 605.886 1358.86 601.343 1354.16 597.114L1345.7 589.282L1355.41 590.065C1368.41 591.318 1372.49 593.511 1385.49 606.826C1403.5 624.996 1420.58 639.564 1423.08 638.467C1428.25 636.588 1424.02 622.96 1416.66 617.477L1412.12 614.188L1417.91 614.031C1424.8 614.031 1426.06 612.465 1422.93 607.922C1419.79 603.536 1409.3 598.367 1391.75 592.415C1381.26 588.969 1373.43 587.559 1360.74 586.776C1351.5 586.149 1340.22 585.053 1335.68 584.113C1326.59 582.39 1307.48 583.643 1297.46 586.619C1293.7 587.716 1290.72 588.499 1290.72 588.186C1290.72 588.029 1296.05 583.643 1302.47 578.63C1308.89 573.618 1314.22 568.919 1314.22 568.292C1314.22 567.509 1312.34 567.039 1310.14 567.039C1304.19 567.039 1289.15 575.498 1277.88 585.366C1272.39 590.065 1264.87 596.174 1260.96 598.837C1257.04 601.5 1249.68 606.826 1244.67 610.742L1235.43 617.791L1238.4 612.621C1249.21 593.825 1270.98 575.028 1298.71 560.147L1312.65 552.785L1316.88 555.918C1319.23 557.954 1322.99 559.207 1325.81 559.05C1328.47 559.05 1336.62 561.557 1343.98 564.846C1356.51 570.642 1358.23 570.955 1372.49 570.955C1385.96 570.955 1387.99 571.268 1391.28 574.401C1396.61 579.57 1399.9 578.944 1401 572.835C1402.09 566.569 1400.37 559.677 1395.2 547.772C1392.07 540.88 1389.87 538.217 1386.43 536.807C1381.89 535.084 1381.89 535.084 1384.55 531.168C1386.9 527.566 1387.68 518.637 1386.43 510.022C1386.27 508.455 1373.11 509.552 1368.41 511.588C1365.44 512.685 1365.59 512.371 1368.88 507.046C1371.23 503.13 1372.17 499.527 1371.86 495.454L1371.39 489.502H1360.9C1351.97 489.502 1349.93 490.129 1346.48 493.261L1342.41 497.021V492.008C1342.41 486.996 1338.65 477.754 1335.68 476.031C1334.89 475.404 1331.6 474.464 1328.31 473.995C1324.71 473.368 1321.11 471.332 1318.45 468.355C1316.1 465.849 1313.43 463.656 1312.65 463.656C1311.71 463.656 1311.08 467.102 1311.08 471.175C1311.08 475.404 1309.67 485.429 1307.95 493.575C1303.72 513.468 1303.88 523.493 1308.58 533.518C1310.61 537.904 1313.12 542.133 1314.06 542.603C1316.41 544.013 1316.25 546.676 1313.9 546.676C1311.08 546.676 1272.39 568.292 1261.74 575.811C1246.7 586.463 1238.72 596.018 1221.8 623.9C1217.26 631.418 1213.18 637.371 1212.87 636.901C1212.09 636.274 1214.59 625.779 1218.98 610.115C1223.05 595.861 1239.5 553.411 1246.08 540.254L1251.4 529.915L1266.75 532.578C1280.07 534.928 1282.73 535.084 1286.49 533.205C1290.88 530.855 1291.82 528.819 1289.15 527.096C1288.37 526.626 1287.59 523.336 1287.59 519.89C1287.59 514.408 1287.12 513.781 1283.67 513.781C1281.48 513.781 1275.84 515.974 1270.98 518.637C1261.59 524.12 1257.51 523.963 1266.28 518.637C1273.18 514.251 1281.01 505.479 1282.26 500.467C1282.89 497.804 1281.95 494.358 1278.97 489.502C1275.06 482.766 1274.43 482.296 1269.1 482.766C1264.72 483.08 1262.68 484.333 1260.02 488.249L1256.73 493.105L1254.54 485.899C1252.81 480.26 1251.56 478.38 1248.74 478.067C1246.7 477.754 1244.2 478.224 1243.1 479.32C1241.54 480.573 1239.81 480.417 1236.84 479.164C1233.39 477.597 1232.29 477.754 1229.47 480.26C1226.81 482.61 1226.34 484.489 1226.81 489.502C1227.91 498.274 1234.64 512.058 1242.01 519.89L1248.27 526.626L1242.32 535.554C1233.86 547.929 1220.86 574.245 1216.32 588.499C1214.12 595.078 1210.52 610.429 1208.33 622.49C1206.13 634.708 1203.94 646.143 1203.63 648.022C1202.53 653.818 1200.34 652.095 1199.56 644.889C1197.99 631.888 1201.12 585.366 1204.41 569.545C1208.48 550.279 1208.48 544.953 1204.41 514.251C1200.5 485.429 1200.03 460.367 1202.85 442.04C1204.72 431.075 1205.35 429.195 1207.54 430.135C1222.43 436.401 1233.08 439.064 1242.95 439.22C1253.13 439.22 1255.01 438.75 1270.36 430.918C1279.44 426.376 1287.27 421.833 1287.9 420.893C1290.25 417.134 1280.07 410.398 1272.24 410.398C1269.42 410.398 1263.94 412.905 1258.45 416.507C1253.28 419.954 1246.39 423.086 1242.95 423.556L1236.68 424.653L1244.67 420.893C1249.05 418.7 1254.22 414.784 1256.26 411.965C1258.3 409.145 1262.06 406.013 1264.72 404.916C1275.37 400.373 1278.97 393.011 1271.61 390.662C1268.63 389.722 1268.63 389.722 1271.92 386.119C1274.74 383.143 1275.06 381.577 1273.96 377.974C1272.55 373.901 1271.77 373.588 1263.94 373.275C1259.24 372.961 1252.34 372.648 1248.43 372.491L1241.38 372.022L1236.52 381.107C1231.04 391.602 1222.27 402.41 1215.69 407.109L1211.15 410.398L1217.41 394.578C1224.3 376.877 1226.34 365.599 1223.52 359.177C1221.8 355.261 1209.27 344.609 1206.45 344.609C1205.82 344.609 1203 346.019 1200.03 347.899ZM1123.12 641.287C1145.83 648.336 1183.11 663.06 1183.74 665.253C1184.2 666.349 1181.39 667.446 1176.84 668.072C1163.37 669.952 1152.72 673.555 1133.92 682.953C1123.9 688.122 1111.37 693.605 1106.04 695.484C1088.81 701.28 1071.42 698.617 1062.5 689.062C1055.6 681.543 1049.65 663.373 1051.69 655.698C1053.57 647.866 1065 639.407 1078.47 635.804C1087.24 633.455 1104.63 635.491 1123.12 641.287ZM1332.07 637.841C1345.54 641.913 1353.38 655.698 1350.24 669.639C1348.05 679.664 1345.07 684.676 1338.65 690.315C1330.98 697.207 1323.77 699.087 1308.73 698.304C1296.52 697.677 1294.79 697.051 1269.1 684.676C1251.4 676.218 1238.25 671.048 1230.41 669.325C1223.99 667.916 1218.67 665.879 1218.67 664.939C1218.67 664 1224.15 661.337 1230.88 659.144C1237.46 656.951 1253.6 651.468 1266.44 646.926C1303.88 634.081 1314.37 632.671 1332.07 637.841Z" fill="#5B0820"/>
<path d="M1098.05 372.021C1091.16 374.37 1088.02 380.166 1090.22 386.118C1091.16 388.468 1091.47 391.601 1091 393.167C1090.37 394.89 1092.25 398.336 1095.7 402.566C1098.83 406.325 1101.03 409.458 1100.87 409.771C1100.4 410.084 1087.71 406.012 1082.07 403.506C1080.66 402.879 1075.65 402.879 1071.11 403.662L1062.81 404.915L1061.87 413.531C1060.77 424.025 1061.87 425.748 1068.76 423.242C1072.67 421.832 1075.49 421.832 1082.39 423.712C1090.53 425.905 1091.31 425.905 1098.05 422.459C1103.22 419.953 1106.35 416.82 1110.27 410.398C1116.38 400.216 1116.38 397.397 1111.36 385.335C1109.17 380.166 1107.45 374.527 1107.45 372.804C1107.45 369.358 1106.04 369.201 1098.05 372.021Z" fill="#5B0820"/>
<path d="M1321.58 395.045C1319.54 397.865 1316.57 402.251 1315 404.6C1312.18 408.986 1312.18 408.986 1309.99 405.697C1307.48 402.094 1300.74 398.961 1298.55 400.214C1297.77 400.684 1298.08 402.877 1299.34 405.07C1300.43 407.263 1302.94 414.782 1304.97 421.674C1308.42 433.736 1309.05 434.519 1316.57 439.531C1320.79 442.351 1329.1 445.953 1335.05 447.52C1344.6 450.026 1346.01 450.026 1349.93 447.99C1352.12 446.58 1355.1 443.604 1356.51 441.254C1358.7 437.182 1358.7 436.712 1356.04 434.675C1354.47 433.579 1352.59 430.603 1351.97 428.096C1350.24 421.361 1344.13 421.361 1333.01 428.253C1320.33 436.085 1318.29 435.302 1328.16 425.903C1336.3 418.071 1336.46 417.915 1335.52 410.709C1334.89 406.637 1334.27 401.154 1333.95 398.648C1333.8 395.985 1333.33 393.009 1333.33 391.912C1332.7 387.996 1325.34 389.876 1321.58 395.045Z" fill="#5B0820"/>
<path d="M1377.97 460.053C1375.93 461.933 1376.87 469.765 1379.38 472.115C1383.29 476.187 1389.25 475.247 1390.34 470.548C1391.75 464.752 1388.31 458.957 1383.14 458.957C1380.79 458.957 1378.44 459.427 1377.97 460.053Z" fill="#5B0820"/>
<path d="M1011.27 473.21C1006.42 476.97 1006.1 479.476 1010.02 482.922C1018.16 490.284 1031.17 480.102 1023.49 472.427C1020.2 468.981 1016.28 469.294 1011.27 473.21Z" fill="#5B0820"/>
<path d="M996.863 511.273C991.224 513.779 989.501 518.635 991.85 524.588C992.79 526.78 993.417 531.323 993.26 534.456C993.104 538.842 994.043 541.505 997.959 545.891C1000.62 548.867 1002.5 551.843 1002.19 552.313C1000.15 554.193 993.417 549.023 989.501 542.601C985.428 535.709 976.5 529.913 973.993 532.42C973.367 533.046 972.584 536.962 972.427 541.191C971.957 548.24 972.27 549.023 977.283 552.47C980.259 554.506 981.825 556.072 980.886 556.072C977.439 556.072 969.607 564.218 969.607 567.82C969.607 571.893 974.777 576.436 979.476 576.436C982.922 576.436 999.996 567.977 1006.89 562.808C1018.17 554.349 1019.89 541.348 1011.12 527.877C1007.83 522.708 1005.63 517.225 1005.63 514.093C1005.63 508.61 1004.23 508.14 996.863 511.273Z" fill="#5B0820"/>
<path d="M850.401 895.982C846.485 898.019 843.823 900.995 842.256 905.224C837.4 917.129 843.509 926.527 860.426 932.793C871.235 936.865 875.621 940.781 875.621 946.264C875.621 953.313 870.765 957.072 861.523 957.072C857.137 957.072 851.028 955.976 847.895 954.722C841.473 952.06 841.943 951.903 840.533 956.602C838.967 961.771 846.955 965.374 859.956 965.531C876.56 965.687 885.019 958.638 885.019 945.011C885.019 936.239 881.416 932.323 867.945 926.057C861.366 923.081 854.787 919.635 853.378 918.225C849.618 914.936 849.775 908.044 853.848 904.441C856.98 901.621 862.933 901.151 877.187 902.718C880.163 902.874 881.26 902.248 881.573 899.742C881.886 897.079 880.79 895.982 877.03 894.572C869.355 891.91 856.824 892.536 850.401 895.982Z" fill="#5B0820"/>
<path d="M1038.37 895.043C1030.85 897.706 1026.62 900.839 1021.93 907.104C1007.2 927.154 1016.6 957.543 1039.78 964.278C1048.71 966.941 1060.77 966.471 1069.07 963.338C1074.24 961.302 1074.24 954.41 1069.07 955.193C1067.35 955.506 1061.09 956.133 1054.98 956.446C1046.2 957.073 1042.92 956.603 1038.53 954.253C1024.74 946.578 1020.99 922.925 1031.64 910.081C1039.16 901.309 1056.54 898.332 1067.19 904.128C1070.64 906.008 1071.27 905.538 1071.74 900.682C1072.05 897.549 1071.11 896.453 1066.72 894.886C1059.52 892.38 1045.42 892.537 1038.37 895.043Z" fill="#5B0820"/>
<path d="M1402.56 895.512C1395.35 899.114 1391.91 906.006 1392.38 915.875C1392.69 921.671 1400.05 928.563 1409.92 932.165C1426.21 938.118 1431.22 946.263 1423.08 953.938C1418.22 958.481 1406.95 958.951 1398.96 955.035C1392.85 952.059 1393.32 951.902 1391.91 956.758C1390.97 959.734 1391.59 960.674 1396.14 962.554C1409.14 967.88 1422.77 966.783 1431.07 959.734C1434.04 957.228 1435.3 954.095 1435.92 949.083C1437.18 937.805 1433.89 933.105 1419.48 926.37C1404.6 919.321 1401.93 916.971 1401.93 911.646C1401.93 901.777 1412.11 899.114 1429.81 903.97C1431.07 904.283 1432.63 903.03 1433.42 900.994C1434.67 897.861 1434.2 897.078 1429.34 895.042C1422.45 892.222 1408.82 892.379 1402.56 895.512Z" fill="#5B0820"/>
<path d="M679.666 913.524C679.509 924.176 679.196 939.996 678.882 948.768L678.256 964.902H700.969H723.682V960.986C723.682 957.227 723.682 957.227 706.138 956.757L688.438 956.287V945.322V934.357L703.788 933.888L718.982 933.418V928.718V923.863L703.788 924.332L688.438 924.959L687.968 913.524L687.498 902.246H705.668H723.682V898.33V894.414H701.752H679.822L679.666 913.524Z" fill="#5B0820"/>
<path d="M745.611 929.658V964.902H767.541H789.471V960.986C789.471 957.227 789.314 957.227 772.71 956.757L755.793 956.287L755.323 925.272L755.01 894.414H750.311H745.611V929.658Z" fill="#5B0820"/>
<path d="M808.266 929.658V964.902H812.965H817.664V929.658V894.414H812.965H808.266V929.658Z" fill="#5B0820"/>
<path d="M928.254 895.667C927.158 897.547 900.686 963.023 900.686 963.962C900.686 964.432 902.722 964.902 905.228 964.902C909.457 964.902 910.241 964.119 913.373 955.504L916.82 946.105H932.954H948.931L952.69 955.504C955.98 964.276 956.606 964.902 961.305 964.902H966.318L962.559 955.034C960.522 949.708 954.257 934.044 948.618 920.26C938.906 896.294 938.279 895.197 933.893 894.727C931.23 894.414 928.724 894.884 928.254 895.667ZM939.532 922.139C942.352 929.188 944.545 935.767 944.545 936.55C944.545 937.647 940.002 938.273 932.797 938.273C926.375 938.273 921.049 937.804 921.049 937.02C921.049 934.201 932.797 907.102 933.737 908.198C934.207 908.825 936.87 915.091 939.532 922.139Z" fill="#5B0820"/>
<path d="M1112.15 903.343C1110.27 908.355 1106.67 917.284 1104.32 923.393C1101.97 929.345 1097.11 941.25 1093.67 949.552L1087.4 964.902H1092.41C1096.96 964.902 1097.58 964.276 1100.87 955.504L1104.63 946.105H1120.45H1136.43L1140.03 955.504C1143.48 964.432 1143.95 964.902 1148.96 964.902H1154.29L1148.81 951.901C1145.83 944.852 1139.25 929.032 1134.39 916.814C1125.62 894.727 1125.47 894.414 1120.61 894.414C1116.07 894.414 1115.44 895.197 1112.15 903.343ZM1126.88 921.513C1130.01 929.032 1132.51 935.924 1132.51 936.707C1132.51 937.647 1127.19 938.273 1119.98 938.273C1113.09 938.273 1107.45 937.96 1107.45 937.647C1107.45 937.334 1109.65 932.008 1112.15 925.899C1114.81 919.633 1117.63 912.898 1118.57 910.548C1119.36 908.355 1120.3 906.789 1120.61 907.102C1120.92 907.415 1123.74 913.838 1126.88 921.513Z" fill="#5B0820"/>
<path d="M1171.67 929.818V965.062L1176.06 964.593L1180.29 964.123L1179.66 937.024C1179.35 922.3 1179.51 910.082 1179.98 910.082C1180.45 910.082 1185.46 918.227 1191.25 928.095C1197.05 937.964 1202.22 946.109 1203 946.109C1203.79 946.109 1205.35 946.422 1206.6 947.049C1208.17 947.519 1211.77 942.663 1218.82 929.818C1224.31 919.793 1229.32 911.648 1230.1 911.648C1230.73 911.648 1231.2 923.553 1231.2 938.277V964.906H1235.11H1239.03V929.662V894.418H1234.49C1230.41 894.418 1229 896.141 1218.51 914.781C1212.09 925.902 1206.45 935.144 1205.98 935.144C1205.51 935.144 1199.87 926.059 1193.45 914.781C1182.33 895.514 1181.7 894.574 1176.84 894.418H1171.67V929.818Z" fill="#5B0820"/>
<path d="M1264.09 929.658V964.902H1268.95H1273.64L1273.18 951.745L1272.71 938.587L1282.42 937.804C1298.86 936.55 1308.26 928.718 1308.26 916.03C1308.26 899.896 1300.59 894.414 1278.34 894.414H1264.09V929.658ZM1295.57 906.789C1299.8 911.958 1299.33 920.26 1294.63 924.959C1291.5 928.248 1289.31 928.875 1282.1 928.875H1273.49V915.404V901.933L1283.04 902.559C1290.72 903.186 1293.38 903.969 1295.57 906.789Z" fill="#5B0820"/>
<path d="M1328.31 929.658V964.902H1351.03H1373.74V960.986V957.07H1355.73H1337.71V945.322V933.731L1353.06 933.261C1368.1 932.791 1368.26 932.791 1368.26 928.875C1368.26 924.959 1368.1 924.959 1353.06 924.489L1337.71 924.019V913.211V902.246H1354.94H1372.17V898.33V894.414H1350.24H1328.31V929.658Z" fill="#5B0820"/>
<path d="M1450.49 898.334C1450.49 901.936 1450.96 902.093 1461.93 902.563L1473.21 903.033V933.578V964.123L1477.59 964.593L1481.82 965.062V933.734V902.25H1493.57C1505.01 902.25 1505.32 902.093 1505.32 898.334V894.418H1477.91H1450.49V898.334Z" fill="#5B0820"/>
<path d="M1522.55 929.502V964.902H1527.25H1531.95V950.648V936.55L1538.52 937.02C1544.79 937.49 1545.1 937.804 1552.94 951.118C1560.3 963.806 1561.24 964.746 1566.09 964.902C1568.76 964.902 1571.11 964.589 1571.11 964.119C1571.11 963.649 1567.19 956.757 1562.33 948.768C1557.01 939.996 1554.5 934.201 1555.6 933.731C1556.54 933.418 1559.67 931.225 1562.33 928.875C1566.72 924.802 1567.19 923.549 1567.19 914.934C1567.19 906.319 1566.72 904.909 1562.02 900.366C1557.01 895.197 1556.85 895.197 1539.78 894.727L1522.55 894.101V929.502ZM1555.6 906.789C1559.67 911.801 1559.36 918.38 1554.97 923.549C1551.84 927.152 1549.65 927.935 1541.66 928.562L1531.95 929.188V915.561V901.933L1542.28 902.559C1550.9 903.029 1553.25 903.812 1555.6 906.789Z" fill="#5B0820"/>
<path d="M1589.9 929.658V964.902H1594.6H1599.3V929.658V894.414H1594.6H1589.9V929.658Z" fill="#5B0820"/>
<path d="M1624.37 929.658V964.902H1629.06H1633.92L1633.45 937.49C1633.14 922.453 1633.29 910.078 1633.76 910.078C1634.23 910.235 1635.96 912.428 1637.84 915.247C1639.56 918.067 1648.33 930.285 1657.1 942.503C1671.51 962.553 1673.55 964.902 1677.78 964.902H1682.32V929.658V894.414H1677.62H1672.92V921.983V949.552L1667.91 942.346C1637.05 898.8 1633.45 894.414 1628.91 894.414H1624.37V929.658Z" fill="#5B0820"/>
<path d="M1707.38 929.818V965.062L1711.77 964.593L1716 964.123L1716.47 929.192L1716.78 894.418H1712.08H1707.38V929.818Z" fill="#5B0820"/>
<path d="M957.857 1025.99C956.291 1027.72 955.507 1029.6 955.977 1030.07C957.23 1031.32 964.906 1026.46 964.906 1024.43C964.906 1021.76 960.833 1022.7 957.857 1025.99Z" fill="#5B0820"/>
<path d="M784.77 1053.4C784.77 1069.69 785.083 1072.98 787.119 1072.98C788.842 1072.98 789.469 1071.1 789.469 1065.94C789.469 1059.2 789.625 1058.89 794.168 1058.89C805.289 1058.89 812.025 1050.9 808.892 1041.81C807.013 1036.49 801.373 1033.82 792.288 1033.82H784.77V1053.4ZM802.94 1041.81C805.603 1044.79 805.603 1045.42 803.41 1049.17C801.687 1052.46 799.65 1053.56 795.264 1053.87L789.469 1054.34V1046.51V1038.52H794.638C798.084 1038.52 801.06 1039.78 802.94 1041.81Z" fill="#5B0820"/>
<path d="M828.628 1036.96C822.363 1043.22 825.339 1051.06 835.677 1055.13C845.076 1058.57 847.582 1063.12 842.726 1067.03C838.653 1070.32 837.557 1070.48 830.508 1068.44C825.966 1067.03 825.339 1067.19 825.809 1069.54C826.122 1070.95 828.628 1072.67 831.448 1073.61C842.256 1076.74 852.281 1069.23 849.932 1059.83C849.148 1056.54 846.955 1054.66 840.533 1051.84C831.448 1047.77 829.725 1045.73 832.075 1041.19C833.171 1038.84 835.051 1038.37 840.846 1038.68C848.365 1039.15 851.811 1036.49 845.546 1034.77C838.497 1032.89 831.761 1033.83 828.628 1036.96Z" fill="#5B0820"/>
<path d="M868.888 1034.76C868.261 1035.39 867.791 1044.32 867.791 1054.5C867.791 1072.04 867.948 1072.98 870.924 1072.98C874.057 1072.98 874.057 1072.2 873.743 1053.87C873.273 1036.17 872.177 1031.63 868.888 1034.76Z" fill="#5B0820"/>
<path d="M903.036 1035.39C892.228 1039.78 887.998 1055.28 894.734 1065.15C899.12 1071.58 906.952 1074.86 915.41 1073.77C922.929 1072.67 924.339 1071.89 923.242 1069.07C922.616 1067.5 921.363 1067.19 918.387 1068.44C911.651 1070.95 906.952 1070.01 902.096 1065.31C895.83 1059.04 895.674 1048.24 901.469 1042.28C905.072 1038.68 906.639 1038.37 914.314 1038.84C919.953 1039.15 923.399 1038.68 923.712 1037.58C924.809 1034.14 909.771 1032.57 903.036 1035.39Z" fill="#5B0820"/>
<path d="M946.267 1037.74C933.892 1048.24 937.181 1068.6 952.062 1072.99C968.823 1078 982.764 1060.45 975.089 1044.16C969.919 1033.51 955.352 1030.22 946.267 1037.74ZM967.883 1042.6C971.642 1047.3 972.269 1059.51 969.136 1063.74C963.654 1070.95 955.352 1071.58 948.93 1065.15C944.544 1060.77 944.23 1059.67 944.857 1052.31C945.797 1042.44 949.869 1038.53 958.641 1038.53C963.34 1038.53 965.377 1039.46 967.883 1042.6Z" fill="#5B0820"/>
<path d="M994.67 1053.25C994.67 1064.06 995.14 1073.14 995.923 1073.46C996.55 1073.77 1001.72 1073.77 1007.67 1073.3C1015.19 1072.83 1018.17 1072.05 1018.17 1070.48C1018.17 1068.91 1015.82 1068.29 1009.55 1068.29H1001.09L1000.62 1051.53C1000.15 1036.96 999.839 1034.61 997.489 1034.14C994.983 1033.67 994.67 1035.39 994.67 1053.25Z" fill="#5B0820"/>
<path d="M1039.78 1036.65C1030.38 1042.28 1028.19 1058.11 1035.55 1067.35C1039.15 1072.05 1049.02 1075.02 1055.29 1073.61C1070.64 1070.01 1074.87 1049.02 1062.65 1037.74C1057.48 1033.04 1046.36 1032.42 1039.78 1036.65ZM1057.64 1040.25C1062.81 1043.07 1065.47 1051.68 1063.59 1059.05C1060.61 1069.85 1047.77 1073.14 1040.09 1064.84C1035.39 1059.67 1035.71 1047.45 1040.88 1042.44C1044.95 1038.21 1052.16 1037.27 1057.64 1040.25Z" fill="#5B0820"/>
<path d="M1094.61 1036.49C1083.95 1043.07 1082.39 1059.67 1091.63 1068.92C1096.02 1073.14 1097.43 1073.77 1105.57 1073.77C1119.2 1073.61 1119.98 1073.14 1119.98 1062.02V1052.62H1112.93C1107.76 1052.62 1105.88 1053.25 1105.88 1054.97C1105.88 1056.54 1107.45 1057.32 1110.58 1057.32C1114.81 1057.32 1115.28 1057.79 1115.28 1062.65C1115.28 1067.35 1114.81 1067.98 1110.11 1068.92C1095.08 1071.74 1085.52 1058.11 1093.35 1045.26C1096.8 1039.47 1101.65 1037.74 1110.74 1039C1115.13 1039.62 1116.85 1039.15 1116.85 1037.74C1116.85 1033.2 1101.34 1032.26 1094.61 1036.49Z" fill="#5B0820"/>
<path d="M1149.74 1037.12C1148.65 1038.84 1144.89 1047.77 1141.13 1056.7C1135.49 1070.48 1134.86 1072.99 1137.06 1072.99C1138.62 1072.99 1140.97 1070.64 1142.38 1067.5C1144.89 1062.18 1145.36 1062.02 1153.5 1062.02C1161.8 1062.02 1162.12 1062.18 1164 1067.5C1165.25 1070.95 1167.13 1072.99 1168.85 1072.99C1172.3 1072.99 1172.3 1073.3 1168.7 1065C1167.13 1061.24 1163.53 1052.62 1160.71 1045.89C1155.54 1033.51 1152.72 1031.32 1149.74 1037.12ZM1159.14 1056.07C1159.14 1056.85 1156.32 1057.32 1152.72 1057.32C1148.18 1057.32 1146.45 1056.7 1147.08 1055.29C1147.55 1054.35 1149.12 1050.27 1150.53 1046.51L1153.35 1039.78L1156.32 1047.3C1157.89 1051.53 1159.14 1055.44 1159.14 1056.07Z" fill="#5B0820"/>
<path d="M1212.4 1053.4C1212.4 1069.69 1212.71 1072.98 1214.75 1072.98C1216.63 1072.98 1217.1 1070.95 1217.1 1064.37V1055.75H1228.06H1239.03V1064.37C1239.03 1070.95 1239.5 1072.98 1241.38 1072.98C1243.41 1072.98 1243.73 1069.69 1243.73 1053.4C1243.73 1037.11 1243.41 1033.82 1241.38 1033.82C1239.5 1033.82 1239.03 1035.86 1239.03 1042.44V1051.21L1228.53 1050.74L1217.88 1050.27L1217.41 1041.97C1217.1 1036.17 1216.31 1033.82 1214.59 1033.82C1212.87 1033.82 1212.4 1037.43 1212.4 1053.4Z" fill="#5B0820"/>
<path d="M1263.46 1038.68C1261.9 1047.14 1262.37 1060.3 1264.72 1065.78C1268.79 1075.34 1284.14 1077.06 1290.72 1068.76C1293.38 1065.31 1293.85 1062.33 1293.85 1049.33C1293.85 1036.65 1293.38 1033.83 1291.5 1033.83C1289.62 1033.83 1289.15 1036.49 1289.15 1048.55C1289.15 1059.98 1288.53 1063.9 1286.65 1065.78C1282.73 1069.7 1277.09 1070.48 1272.71 1067.66C1269.1 1065.31 1268.95 1064.06 1268.48 1049.96C1268.01 1034.61 1265.5 1028.81 1263.46 1038.68Z" fill="#5B0820"/>
<path d="M1314.22 1053.25C1314.22 1069.7 1314.53 1072.99 1316.57 1072.99C1318.45 1072.99 1318.92 1070.32 1318.92 1058.42L1319.07 1044.01L1322.52 1050.12C1324.4 1053.41 1327.53 1057.95 1329.41 1060.3L1333.01 1064.37L1335.99 1060.46C1337.71 1058.26 1340.38 1053.88 1341.79 1050.59C1343.2 1047.45 1345.07 1044.79 1345.86 1044.79C1346.48 1044.79 1347.11 1051.53 1347.11 1059.67C1347.11 1072.05 1347.58 1074.55 1349.46 1074.55C1351.5 1074.55 1351.81 1071.73 1351.5 1054.66C1350.87 1029.6 1349.3 1028.34 1339.44 1045.57C1335.68 1052.15 1332.39 1057.32 1332.07 1056.85C1331.76 1056.54 1328.78 1051.53 1325.65 1045.42C1322.36 1039.47 1318.45 1034.45 1316.88 1034.14C1314.53 1033.67 1314.22 1035.39 1314.22 1053.25Z" fill="#5B0820"/>
<path d="M1382.04 1038.06C1374.99 1054.19 1367.94 1072.83 1368.73 1073.61C1370.61 1075.65 1372.33 1074.24 1374.83 1068.6C1377.5 1063.12 1377.97 1062.8 1386.27 1062.33C1395.04 1061.86 1395.04 1061.86 1396.92 1067.5C1398.96 1072.67 1403.5 1075.34 1403.5 1070.95C1403.34 1066.56 1388.46 1034.61 1386.27 1034.14C1385.02 1033.98 1383.14 1035.71 1382.04 1038.06ZM1389.09 1047.45C1390.19 1050.74 1391.44 1054.5 1391.91 1055.76C1392.54 1057.64 1391.6 1058.11 1388.31 1057.95C1385.96 1057.79 1382.67 1057.48 1381.26 1057.48C1378.91 1057.32 1378.91 1056.54 1382.04 1049.49C1383.92 1045.26 1385.8 1041.66 1386.27 1041.66C1386.74 1041.66 1387.99 1044.32 1389.09 1047.45Z" fill="#5B0820"/>
<path d="M1421.05 1053.25C1421.67 1076.9 1424.34 1079.88 1425.43 1057.95L1426.22 1042.91L1437.34 1058.26C1443.29 1066.88 1449.4 1073.77 1450.65 1073.77C1452.37 1073.77 1453 1070.17 1453.31 1055.13C1453.63 1037.9 1452.53 1031.32 1449.56 1034.3C1448.93 1034.77 1448.46 1041.66 1448.3 1049.49C1448.3 1057.17 1447.83 1063.59 1447.36 1063.43C1446.89 1063.43 1442.04 1057.01 1436.4 1049.02C1430.76 1041.19 1424.96 1034.45 1423.4 1034.14C1420.89 1033.67 1420.73 1035.24 1421.05 1053.25Z" fill="#5B0820"/>
<path d="M1473.21 1035.71C1472.74 1036.96 1472.58 1046.05 1472.74 1055.91C1473.05 1070.48 1473.68 1073.77 1475.56 1073.77C1477.59 1073.77 1477.91 1070.64 1477.91 1054.35C1477.91 1040.09 1477.44 1034.77 1476.03 1034.14C1474.93 1033.83 1473.68 1034.61 1473.21 1035.71Z" fill="#5B0820"/>
<path d="M1499.84 1037.74C1497.64 1039.78 1495.92 1042.44 1495.92 1043.69C1495.92 1047.45 1501.87 1053.72 1506.41 1054.97C1520.2 1058.42 1518.63 1071.73 1504.69 1069.23C1497.49 1067.82 1496.86 1067.97 1496.23 1069.54C1495.45 1071.89 1506.26 1074.87 1511.43 1073.77C1517.85 1072.36 1521.3 1067.97 1520.67 1061.86C1520.2 1057.32 1518.95 1055.91 1511.58 1051.84C1504.85 1048.08 1502.97 1046.2 1502.97 1043.22C1502.97 1039.62 1503.44 1039.31 1511.27 1039.31C1516.6 1039.47 1519.42 1038.84 1519.42 1037.59C1519.42 1032.42 1505.01 1032.42 1499.84 1037.74Z" fill="#5B0820"/>
<path d="M1535.08 1036.18C1535.08 1037.9 1536.8 1038.53 1541.35 1038.53H1547.45L1547.92 1056.07C1548.24 1068.29 1549.02 1073.77 1550.43 1074.24C1551.84 1074.71 1552.31 1070.48 1552.31 1056.7V1038.53H1558.58C1563.12 1038.53 1564.84 1037.9 1564.84 1036.18C1564.84 1034.3 1562.18 1033.83 1549.96 1033.83C1537.74 1033.83 1535.08 1034.3 1535.08 1036.18Z" fill="#5B0820"/>
<path d="M1581.6 1051.37C1573.14 1072.05 1572.67 1073.77 1575.65 1073.77C1576.9 1073.77 1578.63 1071.27 1579.72 1068.29C1581.45 1062.96 1581.76 1062.81 1590.37 1062.34C1599.15 1061.87 1599.3 1061.87 1601.97 1067.51C1603.53 1070.8 1605.73 1072.99 1607.45 1072.99C1610.11 1072.99 1610.11 1072.68 1607.76 1067.04C1606.51 1063.9 1602.91 1055.13 1599.77 1047.46C1592.25 1028.97 1590.84 1029.13 1581.6 1051.37ZM1595.07 1049.02C1596.48 1052.94 1597.58 1056.38 1597.42 1056.7C1596.8 1057.17 1588.34 1057.79 1585.68 1057.48C1584.42 1057.32 1584.89 1054.82 1587.24 1049.49C1589.12 1045.26 1591 1041.66 1591.47 1041.66C1591.94 1041.66 1593.51 1044.95 1595.07 1049.02Z" fill="#5B0820"/>
</svg>
